<?xml version="1.0" encoding="UTF-8" standalone="no"?>
<!DOCTYPE svg PUBLIC "-//W3C//DTD SVG 1.1//EN"
 "http://www.w3.org/Graphics/SVG/1.1/DTD/svg11.dtd">
<!-- Generated by graphviz version 2.26.3 (20100126.1600)
 -->
<!-- Title: _anonymous_0 Pages: 1 -->
<svg width="589pt" height="1262pt"
 viewBox="0.00 0.00 589.00 1262.00" xmlns="http://www.w3.org/2000/svg" xmlns:xlink="http://www.w3.org/1999/xlink">
<g id="graph1" class="graph" transform="scale(1 1) rotate(0) translate(4 1258)">
<title>_anonymous_0</title>
<polygon fill="white" stroke="white" points="-4,5 -4,-1258 586,-1258 586,5 -4,5"/>
<!-- _IO_default_xsputn -->
<g id="node1" class="node"><title>_IO_default_xsputn</title>
<polygon fill="#0d0d73" stroke="#0d0d73" points="306,-781.5 206,-781.5 206,-708.5 306,-708.5 306,-781.5"/>
<text text-anchor="middle" x="256" y="-768.5" font-family="Arial" font-size="10.00" fill="#ffffff">libc&#45;2.15.so</text>
<text text-anchor="middle" x="256" y="-755.5" font-family="Arial" font-size="10.00" fill="#ffffff">_IO_default_xsputn</text>
<text text-anchor="middle" x="256" y="-742.5" font-family="Arial" font-size="10.00" fill="#ffffff">0.00%</text>
<text text-anchor="middle" x="256" y="-729.5" font-family="Arial" font-size="10.00" fill="#ffffff">(0.00%)</text>
<text text-anchor="middle" x="256" y="-716.5" font-family="Arial" font-size="10.00" fill="#ffffff">1×</text>
</g>
<!-- _IO_file_overflow@@GLIBC_2.2.5 -->
<g id="node3" class="node"><title>_IO_file_overflow@@GLIBC_2.2.5</title>
<polygon fill="#0d0d73" stroke="#0d0d73" points="382,-663.5 220,-663.5 220,-590.5 382,-590.5 382,-663.5"/>
<text text-anchor="middle" x="301" y="-650.5" font-family="Arial" font-size="10.00" fill="#ffffff">libc&#45;2.15.so</text>
<text text-anchor="middle" x="301" y="-637.5" font-family="Arial" font-size="10.00" fill="#ffffff">_IO_file_overflow@@GLIBC_2.2.5</text>
<text text-anchor="middle" x="301" y="-624.5" font-family="Arial" font-size="10.00" fill="#ffffff">0.00%</text>
<text text-anchor="middle" x="301" y="-611.5" font-family="Arial" font-size="10.00" fill="#ffffff">(0.00%)</text>
<text text-anchor="middle" x="301" y="-598.5" font-family="Arial" font-size="10.00" fill="#ffffff">12×</text>
</g>
<!-- _IO_default_xsputn&#45;&gt;_IO_file_overflow@@GLIBC_2.2.5 -->
<g id="edge2" class="edge"><title>_IO_default_xsputn&#45;&gt;_IO_file_overflow@@GLIBC_2.2.5</title>
<path fill="none" stroke="#0d0d73" stroke-width="0.5" d="M269.992,-708.311C274.986,-695.213 280.637,-680.396 285.734,-667.031"/>
<polygon fill="#0d0d73" stroke="#0d0d73" points="286.914,-667.373 287.017,-663.666 284.625,-666.5 286.914,-667.373"/>
<text text-anchor="middle" x="297" y="-690" font-family="Arial" font-size="10.00" fill="#0d0d73">0.00%</text>
<text text-anchor="middle" x="297" y="-677" font-family="Arial" font-size="10.00" fill="#0d0d73">10×</text>
</g>
<!-- _IO_do_write@@GLIBC_2.2.5 -->
<g id="node4" class="node"><title>_IO_do_write@@GLIBC_2.2.5</title>
<polygon fill="#0d0d73" stroke="#0d0d73" points="337,-545.5 189,-545.5 189,-472.5 337,-472.5 337,-545.5"/>
<text text-anchor="middle" x="263" y="-532.5" font-family="Arial" font-size="10.00" fill="#ffffff">libc&#45;2.15.so</text>
<text text-anchor="middle" x="263" y="-519.5" font-family="Arial" font-size="10.00" fill="#ffffff">_IO_do_write@@GLIBC_2.2.5</text>
<text text-anchor="middle" x="263" y="-506.5" font-family="Arial" font-size="10.00" fill="#ffffff">0.00%</text>
<text text-anchor="middle" x="263" y="-493.5" font-family="Arial" font-size="10.00" fill="#ffffff">(0.00%)</text>
<text text-anchor="middle" x="263" y="-480.5" font-family="Arial" font-size="10.00" fill="#ffffff">2×</text>
</g>
<!-- _IO_file_overflow@@GLIBC_2.2.5&#45;&gt;_IO_do_write@@GLIBC_2.2.5 -->
<g id="edge14" class="edge"><title>_IO_file_overflow@@GLIBC_2.2.5&#45;&gt;_IO_do_write@@GLIBC_2.2.5</title>
<path fill="none" stroke="#0d0d73" stroke-width="0.5" d="M289.185,-590.311C284.967,-577.213 280.195,-562.396 275.891,-549.031"/>
<polygon fill="#0d0d73" stroke="#0d0d73" points="277.047,-548.622 274.808,-545.666 274.715,-549.373 277.047,-548.622"/>
<text text-anchor="middle" x="300" y="-572" font-family="Arial" font-size="10.00" fill="#0d0d73">0.00%</text>
<text text-anchor="middle" x="300" y="-559" font-family="Arial" font-size="10.00" fill="#0d0d73">2×</text>
</g>
<!-- _IO_doallocbuf -->
<g id="node7" class="node"><title>_IO_doallocbuf</title>
<polygon fill="#0d0d73" stroke="#0d0d73" points="434,-545.5 354,-545.5 354,-472.5 434,-472.5 434,-545.5"/>
<text text-anchor="middle" x="394" y="-532.5" font-family="Arial" font-size="10.00" fill="#ffffff">libc&#45;2.15.so</text>
<text text-anchor="middle" x="394" y="-519.5" font-family="Arial" font-size="10.00" fill="#ffffff">_IO_doallocbuf</text>
<text text-anchor="middle" x="394" y="-506.5" font-family="Arial" font-size="10.00" fill="#ffffff">0.00%</text>
<text text-anchor="middle" x="394" y="-493.5" font-family="Arial" font-size="10.00" fill="#ffffff">(0.00%)</text>
<text text-anchor="middle" x="394" y="-480.5" font-family="Arial" font-size="10.00" fill="#ffffff">1×</text>
</g>
<!-- _IO_file_overflow@@GLIBC_2.2.5&#45;&gt;_IO_doallocbuf -->
<g id="edge16" class="edge"><title>_IO_file_overflow@@GLIBC_2.2.5&#45;&gt;_IO_doallocbuf</title>
<path fill="none" stroke="#0d0d73" stroke-width="0.5" d="M329.916,-590.311C340.326,-577.102 352.115,-562.144 362.718,-548.691"/>
<polygon fill="#0d0d73" stroke="#0d0d73" points="363.897,-549.174 365.102,-545.666 361.973,-547.657 363.897,-549.174"/>
<text text-anchor="middle" x="370" y="-572" font-family="Arial" font-size="10.00" fill="#0d0d73">0.00%</text>
<text text-anchor="middle" x="370" y="-559" font-family="Arial" font-size="10.00" fill="#0d0d73">1×</text>
</g>
<!-- new_do_write -->
<g id="node6" class="node"><title>new_do_write</title>
<polygon fill="#0d0d73" stroke="#0d0d73" points="296,-427.5 222,-427.5 222,-354.5 296,-354.5 296,-427.5"/>
<text text-anchor="middle" x="259" y="-414.5" font-family="Arial" font-size="10.00" fill="#ffffff">libc&#45;2.15.so</text>
<text text-anchor="middle" x="259" y="-401.5" font-family="Arial" font-size="10.00" fill="#ffffff">new_do_write</text>
<text text-anchor="middle" x="259" y="-388.5" font-family="Arial" font-size="10.00" fill="#ffffff">0.00%</text>
<text text-anchor="middle" x="259" y="-375.5" font-family="Arial" font-size="10.00" fill="#ffffff">(0.00%)</text>
<text text-anchor="middle" x="259" y="-362.5" font-family="Arial" font-size="10.00" fill="#ffffff">1×</text>
</g>
<!-- _IO_do_write@@GLIBC_2.2.5&#45;&gt;new_do_write -->
<g id="edge4" class="edge"><title>_IO_do_write@@GLIBC_2.2.5&#45;&gt;new_do_write</title>
<path fill="none" stroke="#0d0d73" stroke-width="0.5" d="M261.756,-472.311C261.316,-459.324 260.819,-444.647 260.369,-431.371"/>
<polygon fill="#0d0d73" stroke="#0d0d73" points="261.586,-431.123 260.243,-427.666 259.137,-431.206 261.586,-431.123"/>
<text text-anchor="middle" x="276" y="-454" font-family="Arial" font-size="10.00" fill="#0d0d73">0.00%</text>
<text text-anchor="middle" x="276" y="-441" font-family="Arial" font-size="10.00" fill="#0d0d73">1×</text>
</g>
<!-- _IO_file_write@@GLIBC_2.2.5 -->
<g id="node20" class="node"><title>_IO_file_write@@GLIBC_2.2.5</title>
<polygon fill="#0d0d73" stroke="#0d0d73" points="276,-309.5 128,-309.5 128,-236.5 276,-236.5 276,-309.5"/>
<text text-anchor="middle" x="202" y="-296.5" font-family="Arial" font-size="10.00" fill="#ffffff">libc&#45;2.15.so</text>
<text text-anchor="middle" x="202" y="-283.5" font-family="Arial" font-size="10.00" fill="#ffffff">_IO_file_write@@GLIBC_2.2.5</text>
<text text-anchor="middle" x="202" y="-270.5" font-family="Arial" font-size="10.00" fill="#ffffff">0.00%</text>
<text text-anchor="middle" x="202" y="-257.5" font-family="Arial" font-size="10.00" fill="#ffffff">(0.00%)</text>
<text text-anchor="middle" x="202" y="-244.5" font-family="Arial" font-size="10.00" fill="#ffffff">1×</text>
</g>
<!-- new_do_write&#45;&gt;_IO_file_write@@GLIBC_2.2.5 -->
<g id="edge50" class="edge"><title>new_do_write&#45;&gt;_IO_file_write@@GLIBC_2.2.5</title>
<path fill="none" stroke="#0d0d73" stroke-width="0.5" d="M241.277,-354.311C234.951,-341.213 227.793,-326.396 221.337,-313.031"/>
<polygon fill="#0d0d73" stroke="#0d0d73" points="222.337,-312.285 219.712,-309.666 220.131,-313.351 222.337,-312.285"/>
<text text-anchor="middle" x="250" y="-336" font-family="Arial" font-size="10.00" fill="#0d0d73">0.00%</text>
<text text-anchor="middle" x="250" y="-323" font-family="Arial" font-size="10.00" fill="#0d0d73">1×</text>
</g>
<!-- _IO_file_doallocate -->
<g id="node9" class="node"><title>_IO_file_doallocate</title>
<polygon fill="#0d0d73" stroke="#0d0d73" points="446,-427.5 348,-427.5 348,-354.5 446,-354.5 446,-427.5"/>
<text text-anchor="middle" x="397" y="-414.5" font-family="Arial" font-size="10.00" fill="#ffffff">libc&#45;2.15.so</text>
<text text-anchor="middle" x="397" y="-401.5" font-family="Arial" font-size="10.00" fill="#ffffff">_IO_file_doallocate</text>
<text text-anchor="middle" x="397" y="-388.5" font-family="Arial" font-size="10.00" fill="#ffffff">0.00%</text>
<text text-anchor="middle" x="397" y="-375.5" font-family="Arial" font-size="10.00" fill="#ffffff">(0.00%)</text>
<text text-anchor="middle" x="397" y="-362.5" font-family="Arial" font-size="10.00" fill="#ffffff">1×</text>
</g>
<!-- _IO_doallocbuf&#45;&gt;_IO_file_doallocate -->
<g id="edge6" class="edge"><title>_IO_doallocbuf&#45;&gt;_IO_file_doallocate</title>
<path fill="none" stroke="#0d0d73" stroke-width="0.5" d="M394.933,-472.311C395.263,-459.324 395.636,-444.647 395.974,-431.371"/>
<polygon fill="#0d0d73" stroke="#0d0d73" points="397.203,-431.196 396.068,-427.666 394.754,-431.134 397.203,-431.196"/>
<text text-anchor="middle" x="410" y="-454" font-family="Arial" font-size="10.00" fill="#0d0d73">0.00%</text>
<text text-anchor="middle" x="410" y="-441" font-family="Arial" font-size="10.00" fill="#0d0d73">1×</text>
</g>
<!-- _IO_file_stat -->
<g id="node11" class="node"><title>_IO_file_stat</title>
<polygon fill="#0d0d73" stroke="#0d0d73" points="355,-309.5 285,-309.5 285,-236.5 355,-236.5 355,-309.5"/>
<text text-anchor="middle" x="320" y="-296.5" font-family="Arial" font-size="10.00" fill="#ffffff">libc&#45;2.15.so</text>
<text text-anchor="middle" x="320" y="-283.5" font-family="Arial" font-size="10.00" fill="#ffffff">_IO_file_stat</text>
<text text-anchor="middle" x="320" y="-270.5" font-family="Arial" font-size="10.00" fill="#ffffff">0.00%</text>
<text text-anchor="middle" x="320" y="-257.5" font-family="Arial" font-size="10.00" fill="#ffffff">(0.00%)</text>
<text text-anchor="middle" x="320" y="-244.5" font-family="Arial" font-size="10.00" fill="#ffffff">1×</text>
</g>
<!-- _IO_file_doallocate&#45;&gt;_IO_file_stat -->
<g id="edge8" class="edge"><title>_IO_file_doallocate&#45;&gt;_IO_file_stat</title>
<path fill="none" stroke="#0d0d73" stroke-width="0.5" d="M373.059,-354.311C364.44,-341.102 354.679,-326.144 345.9,-312.691"/>
<polygon fill="#0d0d73" stroke="#0d0d73" points="346.865,-311.928 343.926,-309.666 344.813,-313.267 346.865,-311.928"/>
<text text-anchor="middle" x="380" y="-336" font-family="Arial" font-size="10.00" fill="#0d0d73">0.00%</text>
<text text-anchor="middle" x="380" y="-323" font-family="Arial" font-size="10.00" fill="#0d0d73">1×</text>
</g>
<!-- _IO_setb -->
<g id="node13" class="node"><title>_IO_setb</title>
<polygon fill="#0d0d73" stroke="#0d0d73" points="430,-309.5 364,-309.5 364,-236.5 430,-236.5 430,-309.5"/>
<text text-anchor="middle" x="397" y="-296.5" font-family="Arial" font-size="10.00" fill="#ffffff">libc&#45;2.15.so</text>
<text text-anchor="middle" x="397" y="-283.5" font-family="Arial" font-size="10.00" fill="#ffffff">_IO_setb</text>
<text text-anchor="middle" x="397" y="-270.5" font-family="Arial" font-size="10.00" fill="#ffffff">0.00%</text>
<text text-anchor="middle" x="397" y="-257.5" font-family="Arial" font-size="10.00" fill="#ffffff">(0.00%)</text>
<text text-anchor="middle" x="397" y="-244.5" font-family="Arial" font-size="10.00" fill="#ffffff">2×</text>
</g>
<!-- _IO_file_doallocate&#45;&gt;_IO_setb -->
<g id="edge10" class="edge"><title>_IO_file_doallocate&#45;&gt;_IO_setb</title>
<path fill="none" stroke="#0d0d73" stroke-width="0.5" d="M397,-354.311C397,-341.324 397,-326.647 397,-313.371"/>
<polygon fill="#0d0d73" stroke="#0d0d73" points="398.225,-313.166 397,-309.666 395.775,-313.166 398.225,-313.166"/>
<text text-anchor="middle" x="411" y="-336" font-family="Arial" font-size="10.00" fill="#0d0d73">0.00%</text>
<text text-anchor="middle" x="411" y="-323" font-family="Arial" font-size="10.00" fill="#0d0d73">1×</text>
</g>
<!-- mmap -->
<g id="node15" class="node"><title>mmap</title>
<polygon fill="#0d0d73" stroke="#0d0d73" points="505,-309.5 439,-309.5 439,-236.5 505,-236.5 505,-309.5"/>
<text text-anchor="middle" x="472" y="-296.5" font-family="Arial" font-size="10.00" fill="#ffffff">libc&#45;2.15.so</text>
<text text-anchor="middle" x="472" y="-283.5" font-family="Arial" font-size="10.00" fill="#ffffff">mmap</text>
<text text-anchor="middle" x="472" y="-270.5" font-family="Arial" font-size="10.00" fill="#ffffff">0.00%</text>
<text text-anchor="middle" x="472" y="-257.5" font-family="Arial" font-size="10.00" fill="#ffffff">(0.00%)</text>
<text text-anchor="middle" x="472" y="-244.5" font-family="Arial" font-size="10.00" fill="#ffffff">10×</text>
</g>
<!-- _IO_file_doallocate&#45;&gt;mmap -->
<g id="edge12" class="edge"><title>_IO_file_doallocate&#45;&gt;mmap</title>
<path fill="none" stroke="#0d0d73" stroke-width="0.5" d="M420.971,-354.383C423.018,-351.214 425.05,-348.054 427,-345 433.614,-334.641 440.693,-323.393 447.232,-312.933"/>
<polygon fill="#0d0d73" stroke="#0d0d73" points="448.428,-313.332 449.244,-309.714 446.35,-312.034 448.428,-313.332"/>
<text text-anchor="middle" x="458" y="-336" font-family="Arial" font-size="10.00" fill="#0d0d73">0.00%</text>
<text text-anchor="middle" x="458" y="-323" font-family="Arial" font-size="10.00" fill="#0d0d73">1×</text>
</g>
<!-- _fxstat -->
<g id="node19" class="node"><title>_fxstat</title>
<polygon fill="#0d0d73" stroke="#0d0d73" points="353,-191.5 287,-191.5 287,-118.5 353,-118.5 353,-191.5"/>
<text text-anchor="middle" x="320" y="-178.5" font-family="Arial" font-size="10.00" fill="#ffffff">libc&#45;2.15.so</text>
<text text-anchor="middle" x="320" y="-165.5" font-family="Arial" font-size="10.00" fill="#ffffff">_fxstat</text>
<text text-anchor="middle" x="320" y="-152.5" font-family="Arial" font-size="10.00" fill="#ffffff">0.00%</text>
<text text-anchor="middle" x="320" y="-139.5" font-family="Arial" font-size="10.00" fill="#ffffff">(0.00%)</text>
<text text-anchor="middle" x="320" y="-126.5" font-family="Arial" font-size="10.00" fill="#ffffff">4×</text>
</g>
<!-- _IO_file_stat&#45;&gt;_fxstat -->
<g id="edge18" class="edge"><title>_IO_file_stat&#45;&gt;_fxstat</title>
<path fill="none" stroke="#0d0d73" stroke-width="0.5" d="M320,-236.311C320,-223.324 320,-208.647 320,-195.371"/>
<polygon fill="#0d0d73" stroke="#0d0d73" points="321.225,-195.166 320,-191.666 318.775,-195.166 321.225,-195.166"/>
<text text-anchor="middle" x="334" y="-218" font-family="Arial" font-size="10.00" fill="#0d0d73">0.00%</text>
<text text-anchor="middle" x="334" y="-205" font-family="Arial" font-size="10.00" fill="#0d0d73">1×</text>
</g>
<!-- write -->
<g id="node22" class="node"><title>write</title>
<polygon fill="#0d0d73" stroke="#0d0d73" points="235,-191.5 169,-191.5 169,-118.5 235,-118.5 235,-191.5"/>
<text text-anchor="middle" x="202" y="-178.5" font-family="Arial" font-size="10.00" fill="#ffffff">libc&#45;2.15.so</text>
<text text-anchor="middle" x="202" y="-165.5" font-family="Arial" font-size="10.00" fill="#ffffff">write</text>
<text text-anchor="middle" x="202" y="-152.5" font-family="Arial" font-size="10.00" fill="#ffffff">0.00%</text>
<text text-anchor="middle" x="202" y="-139.5" font-family="Arial" font-size="10.00" fill="#ffffff">(0.00%)</text>
<text text-anchor="middle" x="202" y="-126.5" font-family="Arial" font-size="10.00" fill="#ffffff">1×</text>
</g>
<!-- _IO_file_write@@GLIBC_2.2.5&#45;&gt;write -->
<g id="edge20" class="edge"><title>_IO_file_write@@GLIBC_2.2.5&#45;&gt;write</title>
<path fill="none" stroke="#0d0d73" stroke-width="0.5" d="M202,-236.311C202,-223.324 202,-208.647 202,-195.371"/>
<polygon fill="#0d0d73" stroke="#0d0d73" points="203.225,-195.166 202,-191.666 200.775,-195.166 203.225,-195.166"/>
<text text-anchor="middle" x="216" y="-218" font-family="Arial" font-size="10.00" fill="#0d0d73">0.00%</text>
<text text-anchor="middle" x="216" y="-205" font-family="Arial" font-size="10.00" fill="#0d0d73">1×</text>
</g>
<!-- __write_nocancel -->
<g id="node26" class="node"><title>__write_nocancel</title>
<polygon fill="#0d0d73" stroke="#0d0d73" points="248,-73.5 156,-73.5 156,-0.5 248,-0.5 248,-73.5"/>
<text text-anchor="middle" x="202" y="-60.5" font-family="Arial" font-size="10.00" fill="#ffffff">libc&#45;2.15.so</text>
<text text-anchor="middle" x="202" y="-47.5" font-family="Arial" font-size="10.00" fill="#ffffff">__write_nocancel</text>
<text text-anchor="middle" x="202" y="-34.5" font-family="Arial" font-size="10.00" fill="#ffffff">0.00%</text>
<text text-anchor="middle" x="202" y="-21.5" font-family="Arial" font-size="10.00" fill="#ffffff">(0.00%)</text>
<text text-anchor="middle" x="202" y="-8.5" font-family="Arial" font-size="10.00" fill="#ffffff">1×</text>
</g>
<!-- write&#45;&gt;__write_nocancel -->
<g id="edge68" class="edge"><title>write&#45;&gt;__write_nocancel</title>
<path fill="none" stroke="#0d0d73" stroke-width="0.5" d="M202,-118.311C202,-105.324 202,-90.6466 202,-77.3711"/>
<polygon fill="#0d0d73" stroke="#0d0d73" points="203.225,-77.1664 202,-73.6664 200.775,-77.1665 203.225,-77.1664"/>
<text text-anchor="middle" x="216" y="-100" font-family="Arial" font-size="10.00" fill="#0d0d73">0.00%</text>
<text text-anchor="middle" x="216" y="-87" font-family="Arial" font-size="10.00" fill="#0d0d73">1×</text>
</g>
<!-- _IO_file_xsputn@@GLIBC_2.2.5 -->
<g id="node23" class="node"><title>_IO_file_xsputn@@GLIBC_2.2.5</title>
<polygon fill="#0d0d73" stroke="#0d0d73" points="356,-899.5 198,-899.5 198,-826.5 356,-826.5 356,-899.5"/>
<text text-anchor="middle" x="277" y="-886.5" font-family="Arial" font-size="10.00" fill="#ffffff">libc&#45;2.15.so</text>
<text text-anchor="middle" x="277" y="-873.5" font-family="Arial" font-size="10.00" fill="#ffffff">_IO_file_xsputn@@GLIBC_2.2.5</text>
<text text-anchor="middle" x="277" y="-860.5" font-family="Arial" font-size="10.00" fill="#ffffff">0.00%</text>
<text text-anchor="middle" x="277" y="-847.5" font-family="Arial" font-size="10.00" fill="#ffffff">(0.00%)</text>
<text text-anchor="middle" x="277" y="-834.5" font-family="Arial" font-size="10.00" fill="#ffffff">215×</text>
</g>
<!-- _IO_file_xsputn@@GLIBC_2.2.5&#45;&gt;_IO_default_xsputn -->
<g id="edge22" class="edge"><title>_IO_file_xsputn@@GLIBC_2.2.5&#45;&gt;_IO_default_xsputn</title>
<path fill="none" stroke="#0d0d73" stroke-width="0.5" d="M270.471,-826.311C268.159,-813.324 265.547,-798.647 263.185,-785.371"/>
<polygon fill="#0d0d73" stroke="#0d0d73" points="264.345,-784.898 262.525,-781.666 261.933,-785.327 264.345,-784.898"/>
<text text-anchor="middle" x="283" y="-808" font-family="Arial" font-size="10.00" fill="#0d0d73">0.00%</text>
<text text-anchor="middle" x="283" y="-795" font-family="Arial" font-size="10.00" fill="#0d0d73">1×</text>
</g>
<!-- _IO_file_xsputn@@GLIBC_2.2.5&#45;&gt;_IO_file_overflow@@GLIBC_2.2.5 -->
<g id="edge24" class="edge"><title>_IO_file_xsputn@@GLIBC_2.2.5&#45;&gt;_IO_file_overflow@@GLIBC_2.2.5</title>
<path fill="none" stroke="#0d0d73" stroke-width="0.5" d="M295.784,-826.498C301.716,-812.911 307.4,-797.115 310,-782 318.214,-734.238 319.167,-721.069 313,-673 312.757,-671.107 312.46,-669.18 312.121,-667.242"/>
<polygon fill="#0d0d73" stroke="#0d0d73" points="313.315,-666.96 311.467,-663.745 310.906,-667.411 313.315,-666.96"/>
<text text-anchor="middle" x="331" y="-749" font-family="Arial" font-size="10.00" fill="#0d0d73">0.00%</text>
<text text-anchor="middle" x="331" y="-736" font-family="Arial" font-size="10.00" fill="#0d0d73">1×</text>
</g>
<!-- _dl_fixup -->
<g id="node27" class="node"><title>_dl_fixup</title>
<polygon fill="#0d0d73" stroke="#0d0d73" points="167,-781.5 109,-781.5 109,-708.5 167,-708.5 167,-781.5"/>
<text text-anchor="middle" x="138" y="-768.5" font-family="Arial" font-size="10.00" fill="#ffffff">ld&#45;2.15.so</text>
<text text-anchor="middle" x="138" y="-755.5" font-family="Arial" font-size="10.00" fill="#ffffff">_dl_fixup</text>
<text text-anchor="middle" x="138" y="-742.5" font-family="Arial" font-size="10.00" fill="#ffffff">0.00%</text>
<text text-anchor="middle" x="138" y="-729.5" font-family="Arial" font-size="10.00" fill="#ffffff">(0.00%)</text>
<text text-anchor="middle" x="138" y="-716.5" font-family="Arial" font-size="10.00" fill="#ffffff">4×</text>
</g>
<!-- _dl_lookup_symbol_x -->
<g id="node29" class="node"><title>_dl_lookup_symbol_x</title>
<polygon fill="#0d0d73" stroke="#0d0d73" points="193,-663.5 83,-663.5 83,-590.5 193,-590.5 193,-663.5"/>
<text text-anchor="middle" x="138" y="-650.5" font-family="Arial" font-size="10.00" fill="#ffffff">ld&#45;2.15.so</text>
<text text-anchor="middle" x="138" y="-637.5" font-family="Arial" font-size="10.00" fill="#ffffff">_dl_lookup_symbol_x</text>
<text text-anchor="middle" x="138" y="-624.5" font-family="Arial" font-size="10.00" fill="#ffffff">0.00%</text>
<text text-anchor="middle" x="138" y="-611.5" font-family="Arial" font-size="10.00" fill="#ffffff">(0.00%)</text>
<text text-anchor="middle" x="138" y="-598.5" font-family="Arial" font-size="10.00" fill="#ffffff">88×</text>
</g>
<!-- _dl_fixup&#45;&gt;_dl_lookup_symbol_x -->
<g id="edge26" class="edge"><title>_dl_fixup&#45;&gt;_dl_lookup_symbol_x</title>
<path fill="none" stroke="#0d0d73" stroke-width="0.5" d="M138,-708.311C138,-695.324 138,-680.647 138,-667.371"/>
<polygon fill="#0d0d73" stroke="#0d0d73" points="139.225,-667.166 138,-663.666 136.775,-667.166 139.225,-667.166"/>
<text text-anchor="middle" x="152" y="-690" font-family="Arial" font-size="10.00" fill="#0d0d73">0.00%</text>
<text text-anchor="middle" x="152" y="-677" font-family="Arial" font-size="10.00" fill="#0d0d73">4×</text>
</g>
<!-- do_lookup_x -->
<g id="node31" class="node"><title>do_lookup_x</title>
<polygon fill="#0d0d73" stroke="#0d0d73" points="173,-545.5 103,-545.5 103,-472.5 173,-472.5 173,-545.5"/>
<text text-anchor="middle" x="138" y="-532.5" font-family="Arial" font-size="10.00" fill="#ffffff">ld&#45;2.15.so</text>
<text text-anchor="middle" x="138" y="-519.5" font-family="Arial" font-size="10.00" fill="#ffffff">do_lookup_x</text>
<text text-anchor="middle" x="138" y="-506.5" font-family="Arial" font-size="10.00" fill="#ffffff">0.00%</text>
<text text-anchor="middle" x="138" y="-493.5" font-family="Arial" font-size="10.00" fill="#ffffff">(0.00%)</text>
<text text-anchor="middle" x="138" y="-480.5" font-family="Arial" font-size="10.00" fill="#ffffff">88×</text>
</g>
<!-- _dl_lookup_symbol_x&#45;&gt;do_lookup_x -->
<g id="edge28" class="edge"><title>_dl_lookup_symbol_x&#45;&gt;do_lookup_x</title>
<path fill="none" stroke="#0d0d73" stroke-width="0.5" d="M138,-590.311C138,-577.324 138,-562.647 138,-549.371"/>
<polygon fill="#0d0d73" stroke="#0d0d73" points="139.225,-549.166 138,-545.666 136.775,-549.166 139.225,-549.166"/>
<text text-anchor="middle" x="152" y="-572" font-family="Arial" font-size="10.00" fill="#0d0d73">0.00%</text>
<text text-anchor="middle" x="152" y="-559" font-family="Arial" font-size="10.00" fill="#0d0d73">88×</text>
</g>
<!-- _dl_name_match_p -->
<g id="node32" class="node"><title>_dl_name_match_p</title>
<polygon fill="#0d0d73" stroke="#0d0d73" points="100,-427.5 3.55271e-14,-427.5 0,-354.5 100,-354.5 100,-427.5"/>
<text text-anchor="middle" x="50" y="-414.5" font-family="Arial" font-size="10.00" fill="#ffffff">ld&#45;2.15.so</text>
<text text-anchor="middle" x="50" y="-401.5" font-family="Arial" font-size="10.00" fill="#ffffff">_dl_name_match_p</text>
<text text-anchor="middle" x="50" y="-388.5" font-family="Arial" font-size="10.00" fill="#ffffff">0.00%</text>
<text text-anchor="middle" x="50" y="-375.5" font-family="Arial" font-size="10.00" fill="#ffffff">(0.00%)</text>
<text text-anchor="middle" x="50" y="-362.5" font-family="Arial" font-size="10.00" fill="#ffffff">30×</text>
</g>
<!-- do_lookup_x&#45;&gt;_dl_name_match_p -->
<g id="edge36" class="edge"><title>do_lookup_x&#45;&gt;_dl_name_match_p</title>
<path fill="none" stroke="#0d0d73" stroke-width="0.5" d="M110.639,-472.311C100.788,-459.102 89.633,-444.144 79.6004,-430.691"/>
<polygon fill="#0d0d73" stroke="#0d0d73" points="80.4189,-429.74 77.3444,-427.666 78.4549,-431.204 80.4189,-429.74"/>
<text text-anchor="middle" x="116" y="-454" font-family="Arial" font-size="10.00" fill="#0d0d73">0.00%</text>
<text text-anchor="middle" x="116" y="-441" font-family="Arial" font-size="10.00" fill="#0d0d73">16×</text>
</g>
<!-- check_match.11259 -->
<g id="node38" class="node"><title>check_match.11259</title>
<polygon fill="#0d0d73" stroke="#0d0d73" points="213,-427.5 109,-427.5 109,-354.5 213,-354.5 213,-427.5"/>
<text text-anchor="middle" x="161" y="-414.5" font-family="Arial" font-size="10.00" fill="#ffffff">ld&#45;2.15.so</text>
<text text-anchor="middle" x="161" y="-401.5" font-family="Arial" font-size="10.00" fill="#ffffff">check_match.11259</text>
<text text-anchor="middle" x="161" y="-388.5" font-family="Arial" font-size="10.00" fill="#ffffff">0.00%</text>
<text text-anchor="middle" x="161" y="-375.5" font-family="Arial" font-size="10.00" fill="#ffffff">(0.00%)</text>
<text text-anchor="middle" x="161" y="-362.5" font-family="Arial" font-size="10.00" fill="#ffffff">84×</text>
</g>
<!-- do_lookup_x&#45;&gt;check_match.11259 -->
<g id="edge38" class="edge"><title>do_lookup_x&#45;&gt;check_match.11259</title>
<path fill="none" stroke="#0d0d73" stroke-width="0.5" d="M145.151,-472.311C147.683,-459.324 150.543,-444.647 153.131,-431.371"/>
<polygon fill="#0d0d73" stroke="#0d0d73" points="154.386,-431.336 153.853,-427.666 151.981,-430.867 154.386,-431.336"/>
<text text-anchor="middle" x="166" y="-454" font-family="Arial" font-size="10.00" fill="#0d0d73">0.00%</text>
<text text-anchor="middle" x="166" y="-441" font-family="Arial" font-size="10.00" fill="#0d0d73">84×</text>
</g>
<!-- strcmp -->
<g id="node34" class="node"><title>strcmp</title>
<polygon fill="#0d0d73" stroke="#0d0d73" points="105,-309.5 47,-309.5 47,-236.5 105,-236.5 105,-309.5"/>
<text text-anchor="middle" x="76" y="-296.5" font-family="Arial" font-size="10.00" fill="#ffffff">ld&#45;2.15.so</text>
<text text-anchor="middle" x="76" y="-283.5" font-family="Arial" font-size="10.00" fill="#ffffff">strcmp</text>
<text text-anchor="middle" x="76" y="-270.5" font-family="Arial" font-size="10.00" fill="#ffffff">0.00%</text>
<text text-anchor="middle" x="76" y="-257.5" font-family="Arial" font-size="10.00" fill="#ffffff">(0.00%)</text>
<text text-anchor="middle" x="76" y="-244.5" font-family="Arial" font-size="10.00" fill="#ffffff">166×</text>
</g>
<!-- _dl_name_match_p&#45;&gt;strcmp -->
<g id="edge30" class="edge"><title>_dl_name_match_p&#45;&gt;strcmp</title>
<path fill="none" stroke="#0d0d73" stroke-width="0.5" d="M58.084,-354.311C60.9455,-341.324 64.1796,-326.647 67.1047,-313.371"/>
<polygon fill="#0d0d73" stroke="#0d0d73" points="68.3641,-313.348 67.921,-309.666 65.9715,-312.821 68.3641,-313.348"/>
<text text-anchor="middle" x="80" y="-336" font-family="Arial" font-size="10.00" fill="#0d0d73">0.00%</text>
<text text-anchor="middle" x="80" y="-323" font-family="Arial" font-size="10.00" fill="#0d0d73">64×</text>
</g>
<!-- strcmp&#39;2 -->
<g id="node57" class="node"><title>strcmp&#39;2</title>
<polygon fill="#0d0d73" stroke="#0d0d73" points="105,-191.5 47,-191.5 47,-118.5 105,-118.5 105,-191.5"/>
<text text-anchor="middle" x="76" y="-178.5" font-family="Arial" font-size="10.00" fill="#ffffff">ld&#45;2.15.so</text>
<text text-anchor="middle" x="76" y="-165.5" font-family="Arial" font-size="10.00" fill="#ffffff">strcmp&#39;2</text>
<text text-anchor="middle" x="76" y="-152.5" font-family="Arial" font-size="10.00" fill="#ffffff">0.00%</text>
<text text-anchor="middle" x="76" y="-139.5" font-family="Arial" font-size="10.00" fill="#ffffff">(0.00%)</text>
<text text-anchor="middle" x="76" y="-126.5" font-family="Arial" font-size="10.00" fill="#ffffff">1147×</text>
</g>
<!-- strcmp&#45;&gt;strcmp&#39;2 -->
<g id="edge54" class="edge"><title>strcmp&#45;&gt;strcmp&#39;2</title>
<path fill="none" stroke="#0d0d73" stroke-width="0.5" d="M76,-236.311C76,-223.324 76,-208.647 76,-195.371"/>
<polygon fill="#0d0d73" stroke="#0d0d73" points="77.2251,-195.166 76,-191.666 74.7751,-195.166 77.2251,-195.166"/>
<text text-anchor="middle" x="90" y="-218" font-family="Arial" font-size="10.00" fill="#0d0d73">0.00%</text>
<text text-anchor="middle" x="90" y="-205" font-family="Arial" font-size="10.00" fill="#0d0d73">111×</text>
</g>
<!-- _dl_runtime_resolve -->
<g id="node35" class="node"><title>_dl_runtime_resolve</title>
<polygon fill="#0d0d73" stroke="#0d0d73" points="189,-899.5 87,-899.5 87,-826.5 189,-826.5 189,-899.5"/>
<text text-anchor="middle" x="138" y="-886.5" font-family="Arial" font-size="10.00" fill="#ffffff">ld&#45;2.15.so</text>
<text text-anchor="middle" x="138" y="-873.5" font-family="Arial" font-size="10.00" fill="#ffffff">_dl_runtime_resolve</text>
<text text-anchor="middle" x="138" y="-860.5" font-family="Arial" font-size="10.00" fill="#ffffff">0.00%</text>
<text text-anchor="middle" x="138" y="-847.5" font-family="Arial" font-size="10.00" fill="#ffffff">(0.00%)</text>
<text text-anchor="middle" x="138" y="-834.5" font-family="Arial" font-size="10.00" fill="#ffffff">4×</text>
</g>
<!-- _dl_runtime_resolve&#45;&gt;_dl_fixup -->
<g id="edge32" class="edge"><title>_dl_runtime_resolve&#45;&gt;_dl_fixup</title>
<path fill="none" stroke="#0d0d73" stroke-width="0.5" d="M138,-826.311C138,-813.324 138,-798.647 138,-785.371"/>
<polygon fill="#0d0d73" stroke="#0d0d73" points="139.225,-785.166 138,-781.666 136.775,-785.166 139.225,-785.166"/>
<text text-anchor="middle" x="152" y="-808" font-family="Arial" font-size="10.00" fill="#0d0d73">0.00%</text>
<text text-anchor="middle" x="152" y="-795" font-family="Arial" font-size="10.00" fill="#0d0d73">4×</text>
</g>
<!-- _itoa_word -->
<g id="node37" class="node"><title>_itoa_word</title>
<polygon fill="#0d0d73" stroke="#0d0d73" points="431,-899.5 365,-899.5 365,-826.5 431,-826.5 431,-899.5"/>
<text text-anchor="middle" x="398" y="-886.5" font-family="Arial" font-size="10.00" fill="#ffffff">libc&#45;2.15.so</text>
<text text-anchor="middle" x="398" y="-873.5" font-family="Arial" font-size="10.00" fill="#ffffff">_itoa_word</text>
<text text-anchor="middle" x="398" y="-860.5" font-family="Arial" font-size="10.00" fill="#ffffff">0.00%</text>
<text text-anchor="middle" x="398" y="-847.5" font-family="Arial" font-size="10.00" fill="#ffffff">(0.00%)</text>
<text text-anchor="middle" x="398" y="-834.5" font-family="Arial" font-size="10.00" fill="#ffffff">86×</text>
</g>
<!-- check_match.11259&#45;&gt;strcmp -->
<g id="edge34" class="edge"><title>check_match.11259&#45;&gt;strcmp</title>
<path fill="none" stroke="#0d0d73" stroke-width="0.5" d="M134.571,-354.311C125.057,-341.102 114.282,-326.144 104.591,-312.691"/>
<polygon fill="#0d0d73" stroke="#0d0d73" points="105.452,-311.79 102.412,-309.666 103.464,-313.222 105.452,-311.79"/>
<text text-anchor="middle" x="141" y="-336" font-family="Arial" font-size="10.00" fill="#0d0d73">0.00%</text>
<text text-anchor="middle" x="141" y="-323" font-family="Arial" font-size="10.00" fill="#0d0d73">96×</text>
</g>
<!-- fibonacci -->
<g id="node42" class="node"><title>fibonacci</title>
<polygon fill="#ff0000" stroke="#ff0000" points="255,-1135.5 201,-1135.5 201,-1062.5 255,-1062.5 255,-1135.5"/>
<text text-anchor="middle" x="228" y="-1122.5" font-family="Arial" font-size="10.00" fill="#ffffff">fib</text>
<text text-anchor="middle" x="228" y="-1109.5" font-family="Arial" font-size="10.00" fill="#ffffff">fibonacci</text>
<text text-anchor="middle" x="228" y="-1096.5" font-family="Arial" font-size="10.00" fill="#ffffff">100.00%</text>
<text text-anchor="middle" x="228" y="-1083.5" font-family="Arial" font-size="10.00" fill="#ffffff">(0.00%)</text>
<text text-anchor="middle" x="228" y="-1070.5" font-family="Arial" font-size="10.00" fill="#ffffff">43×</text>
</g>
<!-- fibonacci&#39;2 -->
<g id="node44" class="node"><title>fibonacci&#39;2</title>
<polygon fill="#ff0000" stroke="#ff0000" points="265,-1017.5 191,-1017.5 191,-944.5 265,-944.5 265,-1017.5"/>
<text text-anchor="middle" x="228" y="-1004.5" font-family="Arial" font-size="10.00" fill="#ffffff">fib</text>
<text text-anchor="middle" x="228" y="-991.5" font-family="Arial" font-size="10.00" fill="#ffffff">fibonacci&#39;2</text>
<text text-anchor="middle" x="228" y="-978.5" font-family="Arial" font-size="10.00" fill="#ffffff">100.00%</text>
<text text-anchor="middle" x="228" y="-965.5" font-family="Arial" font-size="10.00" fill="#ffffff">(100.00%)</text>
<text text-anchor="middle" x="228" y="-952.5" font-family="Arial" font-size="10.00" fill="#ffffff">2269806252×</text>
</g>
<!-- fibonacci&#45;&gt;fibonacci&#39;2 -->
<g id="edge40" class="edge"><title>fibonacci&#45;&gt;fibonacci&#39;2</title>
<path fill="none" stroke="#ff0000" stroke-width="4" d="M228,-1062.31C228,-1051.43 228,-1039.37 228,-1027.94"/>
<polygon fill="#ff0000" stroke="#ff0000" points="231.5,-1027.67 228,-1017.67 224.5,-1027.67 231.5,-1027.67"/>
<text text-anchor="middle" x="247.5" y="-1044" font-family="Arial" font-size="10.00" fill="#ff0000">100.00%</text>
<text text-anchor="middle" x="247.5" y="-1031" font-family="Arial" font-size="10.00" fill="#ff0000">82×</text>
</g>
<!-- fibonacci&#39;2&#45;&gt;fibonacci&#39;2 -->
<g id="edge42" class="edge"><title>fibonacci&#39;2&#45;&gt;fibonacci&#39;2</title>
<path fill="none" stroke="#ff0000" stroke-width="4" d="M265.361,-990.704C270.539,-989.106 274,-985.871 274,-981 274,-979.782 273.784,-978.667 273.378,-977.654"/>
<polygon fill="#ff0000" stroke="#ff0000" points="275.371,-974.767 265.361,-971.296 271.022,-980.252 275.371,-974.767"/>
<text text-anchor="middle" x="303.5" y="-978.5" font-family="Arial" font-size="10.00" fill="#ff0000">2269806170×</text>
</g>
<!-- free -->
<g id="node46" class="node"><title>free</title>
<polygon fill="#0d0d73" stroke="#0d0d73" points="506,-899.5 440,-899.5 440,-826.5 506,-826.5 506,-899.5"/>
<text text-anchor="middle" x="473" y="-886.5" font-family="Arial" font-size="10.00" fill="#ffffff">libc&#45;2.15.so</text>
<text text-anchor="middle" x="473" y="-873.5" font-family="Arial" font-size="10.00" fill="#ffffff">free</text>
<text text-anchor="middle" x="473" y="-860.5" font-family="Arial" font-size="10.00" fill="#ffffff">0.00%</text>
<text text-anchor="middle" x="473" y="-847.5" font-family="Arial" font-size="10.00" fill="#ffffff">(0.00%)</text>
<text text-anchor="middle" x="473" y="-834.5" font-family="Arial" font-size="10.00" fill="#ffffff">86×</text>
</g>
<!-- main -->
<g id="node47" class="node"><title>main</title>
<polygon fill="#ff0000" stroke="#ff0000" points="255,-1253.5 201,-1253.5 201,-1180.5 255,-1180.5 255,-1253.5"/>
<text text-anchor="middle" x="228" y="-1240.5" font-family="Arial" font-size="10.00" fill="#ffffff">fib</text>
<text text-anchor="middle" x="228" y="-1227.5" font-family="Arial" font-size="10.00" fill="#ffffff">main</text>
<text text-anchor="middle" x="228" y="-1214.5" font-family="Arial" font-size="10.00" fill="#ffffff">100.00%</text>
<text text-anchor="middle" x="228" y="-1201.5" font-family="Arial" font-size="10.00" fill="#ffffff">(0.00%)</text>
<text text-anchor="middle" x="228" y="-1188.5" font-family="Arial" font-size="10.00" fill="#ffffff">1×</text>
</g>
<!-- main&#45;&gt;_dl_runtime_resolve -->
<g id="edge44" class="edge"><title>main&#45;&gt;_dl_runtime_resolve</title>
<path fill="none" stroke="#0d0d73" stroke-width="0.5" d="M212.025,-1180.36C206.436,-1166.62 200.451,-1150.77 196,-1136 171.505,-1054.74 153.377,-956.88 144.371,-903.172"/>
<polygon fill="#0d0d73" stroke="#0d0d73" points="145.576,-902.949 143.791,-899.699 143.159,-903.353 145.576,-902.949"/>
<text text-anchor="middle" x="188" y="-1044" font-family="Arial" font-size="10.00" fill="#0d0d73">0.00%</text>
<text text-anchor="middle" x="188" y="-1031" font-family="Arial" font-size="10.00" fill="#0d0d73">1×</text>
</g>
<!-- main&#45;&gt;fibonacci -->
<g id="edge46" class="edge"><title>main&#45;&gt;fibonacci</title>
<path fill="none" stroke="#ff0000" stroke-width="4" d="M228,-1180.31C228,-1169.43 228,-1157.37 228,-1145.94"/>
<polygon fill="#ff0000" stroke="#ff0000" points="231.5,-1145.67 228,-1135.67 224.5,-1145.67 231.5,-1145.67"/>
<text text-anchor="middle" x="247.5" y="-1162" font-family="Arial" font-size="10.00" fill="#ff0000">100.00%</text>
<text text-anchor="middle" x="247.5" y="-1149" font-family="Arial" font-size="10.00" fill="#ff0000">43×</text>
</g>
<!-- printf -->
<g id="node51" class="node"><title>printf</title>
<polygon fill="#0d0d73" stroke="#0d0d73" points="355,-1135.5 289,-1135.5 289,-1062.5 355,-1062.5 355,-1135.5"/>
<text text-anchor="middle" x="322" y="-1122.5" font-family="Arial" font-size="10.00" fill="#ffffff">libc&#45;2.15.so</text>
<text text-anchor="middle" x="322" y="-1109.5" font-family="Arial" font-size="10.00" fill="#ffffff">printf</text>
<text text-anchor="middle" x="322" y="-1096.5" font-family="Arial" font-size="10.00" fill="#ffffff">0.00%</text>
<text text-anchor="middle" x="322" y="-1083.5" font-family="Arial" font-size="10.00" fill="#ffffff">(0.00%)</text>
<text text-anchor="middle" x="322" y="-1070.5" font-family="Arial" font-size="10.00" fill="#ffffff">43×</text>
</g>
<!-- main&#45;&gt;printf -->
<g id="edge48" class="edge"><title>main&#45;&gt;printf</title>
<path fill="none" stroke="#0d0d73" stroke-width="0.5" d="M255.317,-1187.16C259.97,-1181.85 264.688,-1176.32 269,-1171 277.31,-1160.75 285.945,-1149.37 293.773,-1138.74"/>
<polygon fill="#0d0d73" stroke="#0d0d73" points="294.875,-1139.31 295.958,-1135.76 292.9,-1137.86 294.875,-1139.31"/>
<text text-anchor="middle" x="303" y="-1162" font-family="Arial" font-size="10.00" fill="#0d0d73">0.00%</text>
<text text-anchor="middle" x="303" y="-1149" font-family="Arial" font-size="10.00" fill="#0d0d73">43×</text>
</g>
<!-- vfprintf -->
<g id="node54" class="node"><title>vfprintf</title>
<polygon fill="#0d0d73" stroke="#0d0d73" points="424,-1017.5 358,-1017.5 358,-944.5 424,-944.5 424,-1017.5"/>
<text text-anchor="middle" x="391" y="-1004.5" font-family="Arial" font-size="10.00" fill="#ffffff">libc&#45;2.15.so</text>
<text text-anchor="middle" x="391" y="-991.5" font-family="Arial" font-size="10.00" fill="#ffffff">vfprintf</text>
<text text-anchor="middle" x="391" y="-978.5" font-family="Arial" font-size="10.00" fill="#ffffff">0.00%</text>
<text text-anchor="middle" x="391" y="-965.5" font-family="Arial" font-size="10.00" fill="#ffffff">(0.00%)</text>
<text text-anchor="middle" x="391" y="-952.5" font-family="Arial" font-size="10.00" fill="#ffffff">43×</text>
</g>
<!-- printf&#45;&gt;vfprintf -->
<g id="edge52" class="edge"><title>printf&#45;&gt;vfprintf</title>
<path fill="none" stroke="#0d0d73" stroke-width="0.5" d="M343.454,-1062.31C351.177,-1049.1 359.924,-1034.14 367.791,-1020.69"/>
<polygon fill="#0d0d73" stroke="#0d0d73" points="368.85,-1021.31 369.559,-1017.67 366.735,-1020.07 368.85,-1021.31"/>
<text text-anchor="middle" x="377" y="-1044" font-family="Arial" font-size="10.00" fill="#0d0d73">0.00%</text>
<text text-anchor="middle" x="377" y="-1031" font-family="Arial" font-size="10.00" fill="#0d0d73">43×</text>
</g>
<!-- vfprintf&#45;&gt;_IO_file_xsputn@@GLIBC_2.2.5 -->
<g id="edge58" class="edge"><title>vfprintf&#45;&gt;_IO_file_xsputn@@GLIBC_2.2.5</title>
<path fill="none" stroke="#0d0d73" stroke-width="0.5" d="M357.72,-946.552C344.412,-932.777 329.004,-916.828 315.239,-902.58"/>
<polygon fill="#0d0d73" stroke="#0d0d73" points="315.822,-901.421 312.509,-899.755 314.06,-903.123 315.822,-901.421"/>
<text text-anchor="middle" x="359" y="-926" font-family="Arial" font-size="10.00" fill="#0d0d73">0.00%</text>
<text text-anchor="middle" x="359" y="-913" font-family="Arial" font-size="10.00" fill="#0d0d73">215×</text>
</g>
<!-- vfprintf&#45;&gt;_dl_runtime_resolve -->
<g id="edge60" class="edge"><title>vfprintf&#45;&gt;_dl_runtime_resolve</title>
<path fill="none" stroke="#0d0d73" stroke-width="0.5" d="M357.854,-950.718C354.03,-948.164 350.046,-945.854 346,-944 324.678,-934.227 316.711,-940.859 294,-935 247.998,-923.132 235.508,-921.214 193,-900 192.846,-899.923 192.691,-899.845 192.536,-899.768"/>
<polygon fill="#0d0d73" stroke="#0d0d73" points="192.953,-898.604 189.281,-898.083 191.827,-900.78 192.953,-898.604"/>
<text text-anchor="middle" x="308" y="-926" font-family="Arial" font-size="10.00" fill="#0d0d73">0.00%</text>
<text text-anchor="middle" x="308" y="-913" font-family="Arial" font-size="10.00" fill="#0d0d73">1×</text>
</g>
<!-- vfprintf&#45;&gt;_itoa_word -->
<g id="edge62" class="edge"><title>vfprintf&#45;&gt;_itoa_word</title>
<path fill="none" stroke="#0d0d73" stroke-width="0.5" d="M393.176,-944.311C393.947,-931.324 394.818,-916.647 395.605,-903.371"/>
<polygon fill="#0d0d73" stroke="#0d0d73" points="396.84,-903.233 395.825,-899.666 394.395,-903.088 396.84,-903.233"/>
<text text-anchor="middle" x="410" y="-926" font-family="Arial" font-size="10.00" fill="#0d0d73">0.00%</text>
<text text-anchor="middle" x="410" y="-913" font-family="Arial" font-size="10.00" fill="#0d0d73">86×</text>
</g>
<!-- vfprintf&#45;&gt;free -->
<g id="edge64" class="edge"><title>vfprintf&#45;&gt;free</title>
<path fill="none" stroke="#0d0d73" stroke-width="0.5" d="M419.319,-944.266C421.607,-941.152 423.86,-938.034 426,-935 433.315,-924.631 440.954,-913.209 447.896,-902.577"/>
<polygon fill="#0d0d73" stroke="#0d0d73" points="448.951,-903.202 449.835,-899.601 446.898,-901.865 448.951,-903.202"/>
<text text-anchor="middle" x="458" y="-926" font-family="Arial" font-size="10.00" fill="#0d0d73">0.00%</text>
<text text-anchor="middle" x="458" y="-913" font-family="Arial" font-size="10.00" fill="#0d0d73">86×</text>
</g>
<!-- strchrnul -->
<g id="node55" class="node"><title>strchrnul</title>
<polygon fill="#0d0d73" stroke="#0d0d73" points="581,-899.5 515,-899.5 515,-826.5 581,-826.5 581,-899.5"/>
<text text-anchor="middle" x="548" y="-886.5" font-family="Arial" font-size="10.00" fill="#ffffff">libc&#45;2.15.so</text>
<text text-anchor="middle" x="548" y="-873.5" font-family="Arial" font-size="10.00" fill="#ffffff">strchrnul</text>
<text text-anchor="middle" x="548" y="-860.5" font-family="Arial" font-size="10.00" fill="#ffffff">0.00%</text>
<text text-anchor="middle" x="548" y="-847.5" font-family="Arial" font-size="10.00" fill="#ffffff">(0.00%)</text>
<text text-anchor="middle" x="548" y="-834.5" font-family="Arial" font-size="10.00" fill="#ffffff">129×</text>
</g>
<!-- vfprintf&#45;&gt;strchrnul -->
<g id="edge66" class="edge"><title>vfprintf&#45;&gt;strchrnul</title>
<path fill="none" stroke="#0d0d73" stroke-width="0.5" d="M424.08,-965.112C439.772,-956.972 458.446,-946.385 474,-935 492.266,-921.63 494.773,-915.782 511,-900 511.326,-899.683 511.653,-899.365 511.981,-899.045"/>
<polygon fill="#0d0d73" stroke="#0d0d73" points="513.317,-899.451 514.963,-896.128 511.604,-897.7 513.317,-899.451"/>
<text text-anchor="middle" x="515" y="-926" font-family="Arial" font-size="10.00" fill="#0d0d73">0.00%</text>
<text text-anchor="middle" x="515" y="-913" font-family="Arial" font-size="10.00" fill="#0d0d73">129×</text>
</g>
<!-- strcmp&#39;2&#45;&gt;strcmp&#39;2 -->
<g id="edge56" class="edge"><title>strcmp&#39;2&#45;&gt;strcmp&#39;2</title>
<path fill="none" stroke="#0d0d73" stroke-width="0.5" d="M105.316,-165.195C110.438,-163.836 114,-160.438 114,-155 114,-150.922 111.996,-147.991 108.834,-146.207"/>
<polygon fill="#0d0d73" stroke="#0d0d73" points="109.021,-144.963 105.316,-144.805 108.114,-147.239 109.021,-144.963"/>
<text text-anchor="middle" x="128" y="-152.5" font-family="Arial" font-size="10.00" fill="#0d0d73">1036×</text>
</g>
</g>
</svg>
