<?xml version="1.0" encoding="UTF-8" standalone="no"?>
<!DOCTYPE svg PUBLIC "-//W3C//DTD SVG 1.1//EN"
 "http://www.w3.org/Graphics/SVG/1.1/DTD/svg11.dtd">
<!-- Generated by graphviz version 2.26.3 (20100126.1600)
 -->
<!-- Title: _anonymous_0 Pages: 1 -->
<svg width="177pt" height="672pt"
 viewBox="0.00 0.00 177.00 672.00" xmlns="http://www.w3.org/2000/svg" xmlns:xlink="http://www.w3.org/1999/xlink">
<g id="graph1" class="graph" transform="scale(1 1) rotate(0) translate(4 668)">
<title>_anonymous_0</title>
<polygon fill="white" stroke="white" points="-4,5 -4,-668 174,-668 174,5 -4,5"/>
<!-- (below main) -->
<g id="node1" class="node"><title>(below main)</title>
<polygon fill="#ff0000" stroke="#ff0000" points="90,-427.5 20,-427.5 20,-354.5 90,-354.5 90,-427.5"/>
<text text-anchor="middle" x="55" y="-414.5" font-family="Arial" font-size="10.00" fill="#ffffff">libc&#45;2.15.so</text>
<text text-anchor="middle" x="55" y="-401.5" font-family="Arial" font-size="10.00" fill="#ffffff">(below main)</text>
<text text-anchor="middle" x="55" y="-388.5" font-family="Arial" font-size="10.00" fill="#ffffff">100.00%</text>
<text text-anchor="middle" x="55" y="-375.5" font-family="Arial" font-size="10.00" fill="#ffffff">(0.00%)</text>
<text text-anchor="middle" x="55" y="-362.5" font-family="Arial" font-size="10.00" fill="#ffffff">1×</text>
</g>
<!-- main -->
<g id="node3" class="node"><title>main</title>
<polygon fill="#ff0000" stroke="#ff0000" points="82,-309.5 28,-309.5 28,-236.5 82,-236.5 82,-309.5"/>
<text text-anchor="middle" x="55" y="-296.5" font-family="Arial" font-size="10.00" fill="#ffffff">fib</text>
<text text-anchor="middle" x="55" y="-283.5" font-family="Arial" font-size="10.00" fill="#ffffff">main</text>
<text text-anchor="middle" x="55" y="-270.5" font-family="Arial" font-size="10.00" fill="#ffffff">100.00%</text>
<text text-anchor="middle" x="55" y="-257.5" font-family="Arial" font-size="10.00" fill="#ffffff">(0.00%)</text>
<text text-anchor="middle" x="55" y="-244.5" font-family="Arial" font-size="10.00" fill="#ffffff">1×</text>
</g>
<!-- (below main)&#45;&gt;main -->
<g id="edge2" class="edge"><title>(below main)&#45;&gt;main</title>
<path fill="none" stroke="#ff0000" stroke-width="4" d="M55,-354.311C55,-343.433 55,-331.369 55,-319.936"/>
<polygon fill="#ff0000" stroke="#ff0000" points="58.5001,-319.666 55,-309.666 51.5001,-319.666 58.5001,-319.666"/>
<text text-anchor="middle" x="74.5" y="-336" font-family="Arial" font-size="10.00" fill="#ff0000">100.00%</text>
<text text-anchor="middle" x="74.5" y="-323" font-family="Arial" font-size="10.00" fill="#ff0000">1×</text>
</g>
<!-- fibonacci -->
<g id="node8" class="node"><title>fibonacci</title>
<polygon fill="#ff0000" stroke="#ff0000" points="82,-191.5 28,-191.5 28,-118.5 82,-118.5 82,-191.5"/>
<text text-anchor="middle" x="55" y="-178.5" font-family="Arial" font-size="10.00" fill="#ffffff">fib</text>
<text text-anchor="middle" x="55" y="-165.5" font-family="Arial" font-size="10.00" fill="#ffffff">fibonacci</text>
<text text-anchor="middle" x="55" y="-152.5" font-family="Arial" font-size="10.00" fill="#ffffff">100.00%</text>
<text text-anchor="middle" x="55" y="-139.5" font-family="Arial" font-size="10.00" fill="#ffffff">(0.00%)</text>
<text text-anchor="middle" x="55" y="-126.5" font-family="Arial" font-size="10.00" fill="#ffffff">43×</text>
</g>
<!-- main&#45;&gt;fibonacci -->
<g id="edge12" class="edge"><title>main&#45;&gt;fibonacci</title>
<path fill="none" stroke="#ff0000" stroke-width="4" d="M55,-236.311C55,-225.433 55,-213.369 55,-201.936"/>
<polygon fill="#ff0000" stroke="#ff0000" points="58.5001,-201.666 55,-191.666 51.5001,-201.666 58.5001,-201.666"/>
<text text-anchor="middle" x="74.5" y="-218" font-family="Arial" font-size="10.00" fill="#ff0000">100.00%</text>
<text text-anchor="middle" x="74.5" y="-205" font-family="Arial" font-size="10.00" fill="#ff0000">43×</text>
</g>
<!-- 0x00000000000016b0 -->
<g id="node4" class="node"><title>0x00000000000016b0</title>
<polygon fill="#ff0000" stroke="#ff0000" points="110,-663.5 3.55271e-14,-663.5 0,-590.5 110,-590.5 110,-663.5"/>
<text text-anchor="middle" x="55" y="-650.5" font-family="Arial" font-size="10.00" fill="#ffffff">ld&#45;2.15.so</text>
<text text-anchor="middle" x="55" y="-637.5" font-family="Arial" font-size="10.00" fill="#ffffff">0x00000000000016b0</text>
<text text-anchor="middle" x="55" y="-624.5" font-family="Arial" font-size="10.00" fill="#ffffff">100.00%</text>
<text text-anchor="middle" x="55" y="-611.5" font-family="Arial" font-size="10.00" fill="#ffffff">(0.00%)</text>
<text text-anchor="middle" x="55" y="-598.5" font-family="Arial" font-size="10.00" fill="#ffffff">0×</text>
</g>
<!-- 0x0000000000400410 -->
<g id="node6" class="node"><title>0x0000000000400410</title>
<polygon fill="#ff0000" stroke="#ff0000" points="110,-545.5 3.55271e-14,-545.5 0,-472.5 110,-472.5 110,-545.5"/>
<text text-anchor="middle" x="55" y="-532.5" font-family="Arial" font-size="10.00" fill="#ffffff">fib</text>
<text text-anchor="middle" x="55" y="-519.5" font-family="Arial" font-size="10.00" fill="#ffffff">0x0000000000400410</text>
<text text-anchor="middle" x="55" y="-506.5" font-family="Arial" font-size="10.00" fill="#ffffff">100.00%</text>
<text text-anchor="middle" x="55" y="-493.5" font-family="Arial" font-size="10.00" fill="#ffffff">(0.00%)</text>
<text text-anchor="middle" x="55" y="-480.5" font-family="Arial" font-size="10.00" fill="#ffffff">1×</text>
</g>
<!-- 0x00000000000016b0&#45;&gt;0x0000000000400410 -->
<g id="edge4" class="edge"><title>0x00000000000016b0&#45;&gt;0x0000000000400410</title>
<path fill="none" stroke="#ff0000" stroke-width="4" d="M55,-590.311C55,-579.433 55,-567.369 55,-555.936"/>
<polygon fill="#ff0000" stroke="#ff0000" points="58.5001,-555.666 55,-545.666 51.5001,-555.666 58.5001,-555.666"/>
<text text-anchor="middle" x="74.5" y="-572" font-family="Arial" font-size="10.00" fill="#ff0000">100.00%</text>
<text text-anchor="middle" x="74.5" y="-559" font-family="Arial" font-size="10.00" fill="#ff0000">1×</text>
</g>
<!-- 0x0000000000400410&#45;&gt;(below main) -->
<g id="edge6" class="edge"><title>0x0000000000400410&#45;&gt;(below main)</title>
<path fill="none" stroke="#ff0000" stroke-width="4" d="M55,-472.311C55,-461.433 55,-449.369 55,-437.936"/>
<polygon fill="#ff0000" stroke="#ff0000" points="58.5001,-437.666 55,-427.666 51.5001,-437.666 58.5001,-437.666"/>
<text text-anchor="middle" x="74.5" y="-454" font-family="Arial" font-size="10.00" fill="#ff0000">100.00%</text>
<text text-anchor="middle" x="74.5" y="-441" font-family="Arial" font-size="10.00" fill="#ff0000">1×</text>
</g>
<!-- fibonacci&#39;2 -->
<g id="node10" class="node"><title>fibonacci&#39;2</title>
<polygon fill="#ff0000" stroke="#ff0000" points="92,-73.5 18,-73.5 18,-0.5 92,-0.5 92,-73.5"/>
<text text-anchor="middle" x="55" y="-60.5" font-family="Arial" font-size="10.00" fill="#ffffff">fib</text>
<text text-anchor="middle" x="55" y="-47.5" font-family="Arial" font-size="10.00" fill="#ffffff">fibonacci&#39;2</text>
<text text-anchor="middle" x="55" y="-34.5" font-family="Arial" font-size="10.00" fill="#ffffff">100.00%</text>
<text text-anchor="middle" x="55" y="-21.5" font-family="Arial" font-size="10.00" fill="#ffffff">(100.00%)</text>
<text text-anchor="middle" x="55" y="-8.5" font-family="Arial" font-size="10.00" fill="#ffffff">2269806252×</text>
</g>
<!-- fibonacci&#45;&gt;fibonacci&#39;2 -->
<g id="edge8" class="edge"><title>fibonacci&#45;&gt;fibonacci&#39;2</title>
<path fill="none" stroke="#ff0000" stroke-width="4" d="M55,-118.311C55,-107.433 55,-95.3691 55,-83.9363"/>
<polygon fill="#ff0000" stroke="#ff0000" points="58.5001,-83.6664 55,-73.6664 51.5001,-83.6665 58.5001,-83.6664"/>
<text text-anchor="middle" x="74.5" y="-100" font-family="Arial" font-size="10.00" fill="#ff0000">100.00%</text>
<text text-anchor="middle" x="74.5" y="-87" font-family="Arial" font-size="10.00" fill="#ff0000">82×</text>
</g>
<!-- fibonacci&#39;2&#45;&gt;fibonacci&#39;2 -->
<g id="edge10" class="edge"><title>fibonacci&#39;2&#45;&gt;fibonacci&#39;2</title>
<path fill="none" stroke="#ff0000" stroke-width="4" d="M92.3614,-46.7041C97.5391,-45.1058 101,-41.8711 101,-37 101,-35.7822 100.784,-34.6667 100.378,-33.6535"/>
<polygon fill="#ff0000" stroke="#ff0000" points="102.371,-30.7671 92.3614,-27.2959 98.0219,-36.2518 102.371,-30.7671"/>
<text text-anchor="middle" x="130.5" y="-34.5" font-family="Arial" font-size="10.00" fill="#ff0000">2269806170×</text>
</g>
</g>
</svg>
