<?xml version="1.0" encoding="UTF-8" standalone="no"?>
<!DOCTYPE svg PUBLIC "-//W3C//DTD SVG 1.1//EN"
 "http://www.w3.org/Graphics/SVG/1.1/DTD/svg11.dtd">
<!-- Generated by graphviz version 2.26.3 (20100126.1600)
 -->
<!-- Title: _anonymous_0 Pages: 1 -->
<svg width="159pt" height="160pt"
 viewBox="0.00 0.00 159.00 160.00" xmlns="http://www.w3.org/2000/svg" xmlns:xlink="http://www.w3.org/1999/xlink">
<g id="graph1" class="graph" transform="scale(1 1) rotate(0) translate(4 156)">
<title>_anonymous_0</title>
<polygon fill="white" stroke="white" points="-4,5 -4,-156 156,-156 156,5 -4,5"/>
<!-- 1 -->
<g id="node1" class="node"><title>1</title>
<polygon fill="#ff0000" stroke="#ff0000" points="64,-151.5 10,-151.5 10,-104.5 64,-104.5 64,-151.5"/>
<text text-anchor="middle" x="37" y="-138.5" font-family="Arial" font-size="10.00" fill="#ffffff">main</text>
<text text-anchor="middle" x="37" y="-125.5" font-family="Arial" font-size="10.00" fill="#ffffff">100.00%</text>
<text text-anchor="middle" x="37" y="-112.5" font-family="Arial" font-size="10.00" fill="#ffffff">(5.68%)</text>
</g>
<!-- 2 -->
<g id="node3" class="node"><title>2</title>
<polygon fill="#f63901" stroke="#f63901" points="74,-60 3.55271e-14,-60 0,-3.19744e-14 74,-1.06581e-14 74,-60"/>
<text text-anchor="middle" x="37" y="-47" font-family="Arial" font-size="10.00" fill="#ffffff">fibonacci</text>
<text text-anchor="middle" x="37" y="-34" font-family="Arial" font-size="10.00" fill="#ffffff">94.32%</text>
<text text-anchor="middle" x="37" y="-21" font-family="Arial" font-size="10.00" fill="#ffffff">(94.32%)</text>
<text text-anchor="middle" x="37" y="-8" font-family="Arial" font-size="10.00" fill="#ffffff">2269806295脳</text>
</g>
<!-- 1&#45;&gt;2 -->
<g id="edge2" class="edge"><title>1&#45;&gt;2</title>
<path fill="none" stroke="#f63901" stroke-width="3.77" d="M37,-104.277C37,-94.0247 37,-81.7394 37,-70.1395"/>
<polygon fill="#f63901" stroke="#f63901" points="40.3951,-69.8903 37,-60.1903 33.6051,-69.8904 40.3951,-69.8903"/>
<text text-anchor="middle" x="54" y="-86" font-family="Arial" font-size="10.00" fill="#f63901">94.32%</text>
<text text-anchor="middle" x="54" y="-73" font-family="Arial" font-size="10.00" fill="#f63901">43脳</text>
</g>
<!-- 2&#45;&gt;2 -->
<g id="edge4" class="edge"><title>2&#45;&gt;2</title>
<path fill="none" stroke="#f63901" stroke-width="3.77" d="M74.3614,-38.7003C79.5391,-37.2673 83,-34.3672 83,-30 83,-28.9082 82.7837,-27.9081 82.3783,-26.9997"/>
<polygon fill="#f63901" stroke="#f63901" points="84.2342,-24.1536 74.3614,-21.2997 80.2997,-29.6875 84.2342,-24.1536"/>
<text text-anchor="middle" x="112.5" y="-27.5" font-family="Arial" font-size="10.00" fill="#f63901">2269806252脳</text>
</g>
</g>
</svg>
